<svg width="102" height="91" viewBox="0 0 102 91" fill="none" xmlns="http://www.w3.org/2000/svg">
<path d="M51 37.9165C27.1681 37.9165 8.5 30.4223 8.5 20.854C8.5 11.2857 27.1681 3.7915 51 3.7915C74.8319 3.7915 93.5 11.2857 93.5 20.854C93.5 30.4223 74.8319 37.9165 51 37.9165ZM51 7.58317C32.9078 7.58317 12.75 13.0337 12.75 20.854C12.75 28.6743 32.9078 34.1248 51 34.1248C69.0922 34.1248 89.25 28.6743 89.25 20.854C89.25 13.0337 69.0922 7.58317 51 7.58317Z" fill="#555555"/>
<path d="M51 53.0835C27.1681 53.0835 8.5 45.5893 8.5 36.021V20.8543C8.5 20.3515 8.72388 19.8693 9.1224 19.5138C9.52091 19.1582 10.0614 18.9585 10.625 18.9585C11.1886 18.9585 11.7291 19.1582 12.1276 19.5138C12.5261 19.8693 12.75 20.3515 12.75 20.8543V36.021C12.75 43.8413 32.9078 49.2918 51 49.2918C69.0922 49.2918 89.25 43.8413 89.25 36.021V20.8543C89.25 20.3515 89.4739 19.8693 89.8724 19.5138C90.2709 19.1582 90.8114 18.9585 91.375 18.9585C91.9386 18.9585 92.4791 19.1582 92.8776 19.5138C93.2761 19.8693 93.5 20.3515 93.5 20.8543V36.021C93.5 45.5893 74.8319 53.0835 51 53.0835Z" fill="#555555"/>
<path d="M51 70.1458C27.1681 70.1458 8.5 62.6516 8.5 53.0833V36.0208C8.5 35.518 8.72388 35.0358 9.1224 34.6803C9.52091 34.3247 10.0614 34.125 10.625 34.125C11.1886 34.125 11.7291 34.3247 12.1276 34.6803C12.5261 35.0358 12.75 35.518 12.75 36.0208V53.0833C12.75 60.9036 32.9078 66.3542 51 66.3542C69.0922 66.3542 89.25 60.9036 89.25 53.0833V36.0208C89.25 35.518 89.4739 35.0358 89.8724 34.6803C90.2709 34.3247 90.8114 34.125 91.375 34.125C91.9386 34.125 92.4791 34.3247 92.8776 34.6803C93.2761 35.0358 93.5 35.518 93.5 36.0208V53.0833C93.5 62.6516 74.8319 70.1458 51 70.1458Z" fill="#555555"/>
<path d="M51 87.2083C27.1681 87.2083 8.5 79.7141 8.5 70.1458V53.0833C8.5 52.5805 8.72388 52.0983 9.1224 51.7428C9.52091 51.3872 10.0614 51.1875 10.625 51.1875C11.1886 51.1875 11.7291 51.3872 12.1276 51.7428C12.5261 52.0983 12.75 52.5805 12.75 53.0833V70.1458C12.75 77.9661 32.9078 83.4167 51 83.4167C69.0922 83.4167 89.25 77.9661 89.25 70.1458V53.0833C89.25 52.5805 89.4739 52.0983 89.8724 51.7428C90.2709 51.3872 90.8114 51.1875 91.375 51.1875C91.9386 51.1875 92.4791 51.3872 92.8776 51.7428C93.2761 52.0983 93.5 52.5805 93.5 53.0833V70.1458C93.5 79.7141 74.8319 87.2083 51 87.2083Z" fill="#555555"/>
</svg>
