<svg width="512" height="512" viewBox="0 0 512 512" fill="none" xmlns="http://www.w3.org/2000/svg">
<g clip-path="url(#clip0_675_444)">
<path d="M450.72 507.601H220.96C211.84 507.601 204.16 501.041 202.64 492.081L141.36 119.841C140.921 117.183 141.066 114.461 141.785 111.864C142.504 109.266 143.779 106.857 145.521 104.802C147.264 102.747 149.434 101.096 151.878 99.9629C154.323 98.83 156.985 98.2426 159.68 98.2414H512C514.695 98.2426 517.357 98.83 519.802 99.9629C522.246 101.096 524.416 102.747 526.159 104.802C527.901 106.857 529.176 109.266 529.895 111.864C530.614 114.461 530.759 117.183 530.32 119.841L469.04 492.081C468.32 496.419 466.083 500.36 462.728 503.203C459.373 506.045 455.117 507.604 450.72 507.601ZM236.72 470.481H434.96L490.08 135.361H181.52L236.72 470.481ZM512 79.6014H159.68C149.44 79.6014 141.12 71.2814 141.12 61.0414C141.12 50.8014 149.44 42.4814 159.68 42.4814H512C522.24 42.4814 530.56 50.8014 530.56 61.0414C530.56 71.2814 522.24 79.6014 512 79.6014ZM376.64 32.7214H295.04C284.8 32.7214 276.48 24.4014 276.48 14.1614C276.48 3.92141 284.8 -4.39859 295.04 -4.39859H376.64C386.88 -4.39859 395.2 3.92141 395.2 14.1614C395.2 24.4014 386.88 32.7214 376.64 32.7214Z" fill="black"/>
</g>
<defs>
<clipPath id="clip0_675_444">
<rect width="512" height="512" fill="white"/>
</clipPath>
</defs>
</svg>
